<svg id="Capa_1" enable-background="new 0 0 512 512" height="512" viewBox="0 0 512 512" width="512" xmlns="http://www.w3.org/2000/svg"><g><path d="m498.841 83.87-70.711-70.711c-17.546-17.545-46.094-17.546-63.64 0s-17.545 46.094 0 63.64l3.536 3.536-35.355 35.355-17.678-17.678c-17.546-17.545-46.094-17.546-63.64 0-13.827 13.828-16.749 34.485-8.782 51.208l-153.852 153.853c-13.827 13.827-16.749 34.485-8.782 51.208l-19.502 19.502c-13.646 13.646-13.646 35.851 0 49.497l3.536 3.536-59.578 59.578c-5.858 5.858-5.858 15.355 0 21.213s15.355 5.858 21.213 0l59.577-59.577 3.535 3.536c13.646 13.646 35.851 13.646 49.497 0l19.502-19.502c16.724 7.967 37.381 5.045 51.209-8.782l153.852-153.852c16.724 7.967 37.381 5.045 51.208-8.782 17.546-17.546 17.546-46.094 0-63.64l-17.678-17.678 35.355-35.355 3.536 3.536c17.546 17.546 46.094 17.546 63.64 0 17.547-17.547 17.547-46.095.002-63.641zm-381.838 346.482c-1.949 1.949-5.122 1.949-7.071 0l-28.284-28.284c-1.949-1.949-1.949-5.122 0-7.071l17.678-17.678 35.355 35.355zm70.711-28.284c-5.849 5.849-15.364 5.849-21.213 0l-56.569-56.568c-5.849-5.849-5.849-15.364 0-21.213l13.155-13.155 17.678 17.677c5.858 5.858 15.355 5.858 21.213 0s5.858-15.355 0-21.213l-17.678-17.678 21.213-21.213 17.678 17.678c5.858 5.858 15.355 5.858 21.213 0s5.858-15.355 0-21.213l-17.678-17.678 21.213-21.213 77.782 77.782zm119.22-119.221-77.782-77.782 32.807-32.807 77.782 77.782zm85.841-43.414c-5.849 5.849-15.364 5.849-21.213 0l-98.995-98.995c-5.848-5.849-5.849-15.365 0-21.213 5.849-5.849 15.365-5.849 21.213 0l98.995 98.995c5.849 5.849 5.849 15.365 0 21.213zm-17.678-81.317-21.213-21.213 35.355-35.355 21.213 21.213zm102.53-31.82c-5.849 5.849-15.364 5.849-21.213 0l-70.711-70.711c-5.849-5.849-5.849-15.364 0-21.213s15.365-5.848 21.213 0l70.711 70.711c5.849 5.849 5.849 15.365 0 21.213z"/></g></svg>